<svg width="1080" height="1080" viewBox="0 0 1080 1080" fill="none" xmlns="http://www.w3.org/2000/svg">
<g clip-path="url(#clip0_662_4258)">
<rect width="1080" height="1080" fill="white"/>
<rect width="1080" height="1080" fill="url(#paint0_radial_662_4258)"/>
<path d="M349.123 550.393C339.801 550.393 330.253 546.935 321.915 540.172C313.842 533.542 308.196 524.164 305.569 513.03L315.683 510.643C317.146 516.845 320.553 525.607 328.484 532.12C339.275 540.866 351.974 542.478 362.424 536.414C373.425 530.115 377.709 515.8 372.206 503.804C371.793 502.871 371.268 501.907 370.65 500.923C365.02 507.946 355.458 512.918 345.829 510.914C339.622 509.618 334.446 504.875 332.64 498.822C330.998 493.314 332.018 487.693 335.506 482.996C339.571 477.524 345.446 474.908 352.056 475.642C357.054 476.193 362.047 478.59 366.514 481.828C366.846 474.02 363.73 467.299 357.554 463.03C347.986 456.425 334.425 458.057 323.016 467.186L316.524 459.072C331.6 447.011 350.021 445.21 363.454 454.482C374.781 462.301 379.331 475.872 375.689 490.402C378.362 493.564 380.442 496.771 381.666 499.525C389.362 516.304 383.196 536.485 367.606 545.41C361.863 548.746 355.544 550.388 349.118 550.388L349.123 550.393ZM349.842 485.914C347.389 485.914 345.507 486.954 343.84 489.198C342.305 491.263 341.886 493.502 342.59 495.864C343.304 498.271 345.456 500.234 347.94 500.749C354.03 502.014 360.629 497.888 363.699 492.85C359.655 489.223 354.953 486.429 350.913 485.98C350.546 485.939 350.189 485.919 349.842 485.919V485.914Z" fill="#4876EF"/>
<path d="M306.232 538.122L296.512 534.455L307.599 505.074L336.975 516.162L333.308 525.882L313.648 518.462L306.232 538.122Z" fill="#01D2AB"/>
<path d="M405.331 487.602C404.01 488.923 402.444 489.586 400.639 489.586C398.833 489.586 397.268 488.928 395.947 487.602C394.626 486.281 393.963 484.715 393.963 482.91C393.963 481.104 394.605 479.539 395.896 478.218C397.186 476.897 398.767 476.234 400.639 476.234C402.51 476.234 404.086 476.897 405.382 478.218C406.672 479.539 407.315 481.104 407.315 482.91C407.315 484.715 406.652 486.281 405.331 487.602ZM395.416 545.216V496.843H405.866V545.216H395.416Z" fill="#4876EF"/>
<path d="M430.443 535.348H453.954V545.216H416.214V538.25L438.853 506.706H417.178V496.838H452.97V503.799L430.443 535.348Z" fill="#4876EF"/>
<path d="M475.242 535.348H498.753V545.216H461.013V538.25L483.652 506.706H461.977V496.838H497.768V503.799L475.242 535.348Z" fill="#4876EF"/>
<path d="M515.383 510.128C515.383 511.72 516.276 512.979 518.066 513.902C519.851 514.826 521.998 515.672 524.502 516.442C527.006 517.212 529.566 518.003 532.193 518.814C534.819 519.625 537.012 521.119 538.772 523.307C540.531 525.495 541.414 528.249 541.414 531.579C541.414 536.225 539.624 539.867 536.043 542.513C532.463 545.16 527.965 546.481 522.544 546.481C517.77 546.481 513.675 545.482 510.258 543.482C506.841 541.483 504.357 538.709 502.807 535.164L511.803 529.942C513.481 534.588 517.061 536.909 522.544 536.909C528.026 536.909 530.77 535.103 530.77 531.487C530.77 529.937 529.883 528.682 528.108 527.713C526.333 526.744 524.196 525.877 521.692 525.107C519.188 524.337 516.628 523.547 514.001 522.736C511.375 521.93 509.177 520.476 507.402 518.38C505.627 516.284 504.74 513.627 504.74 510.399C504.74 505.946 506.433 502.366 509.819 499.658C513.206 496.95 517.413 495.593 522.447 495.593C526.445 495.593 530.01 496.481 533.136 498.256C536.263 500.03 538.665 502.499 540.343 505.656L531.54 510.587C529.862 506.91 526.833 505.074 522.447 505.074C520.448 505.074 518.77 505.508 517.418 506.365C516.062 507.227 515.388 508.481 515.388 510.139L515.383 510.128Z" fill="#4876EF"/>
<path d="M572.178 546.476C564.89 546.476 558.81 544.023 553.94 539.122C549.069 534.221 546.637 528.188 546.637 521.032C546.637 513.877 549.069 507.762 553.94 502.892C558.81 498.021 564.89 495.588 572.178 495.588C576.885 495.588 581.174 496.715 585.045 498.975C588.916 501.234 591.818 504.263 593.751 508.068L584.754 513.29C583.658 510.97 581.995 509.144 579.771 507.823C577.548 506.502 574.983 505.839 572.081 505.839C567.822 505.839 564.257 507.293 561.391 510.195C558.52 513.097 557.087 516.713 557.087 521.032C557.087 525.352 558.52 528.968 561.391 531.87C564.262 534.772 567.827 536.225 572.081 536.225C574.916 536.225 577.482 535.547 579.771 534.195C582.061 532.839 583.785 531.033 584.948 528.779L593.944 533.905C591.879 537.776 588.916 540.841 585.045 543.095C581.174 545.354 576.885 546.481 572.178 546.481V546.476Z" fill="#4876EF"/>
<path d="M612.232 504.967C614.874 498.97 619.842 495.971 627.129 495.971V507.293C623.131 507.038 619.648 507.986 616.68 510.149C613.711 512.311 612.227 515.876 612.227 520.838V545.221H601.777V496.848H612.227V504.977L612.232 504.967Z" fill="#4876EF"/>
<path d="M644.791 487.602C643.47 488.923 641.904 489.586 640.099 489.586C638.293 489.586 636.728 488.928 635.407 487.602C634.086 486.281 633.423 484.715 633.423 482.91C633.423 481.104 634.065 479.539 635.356 478.218C636.646 476.897 638.227 476.234 640.099 476.234C641.97 476.234 643.546 476.897 644.842 478.218C646.132 479.539 646.775 481.104 646.775 482.91C646.775 484.715 646.112 486.281 644.791 487.602ZM634.876 545.216V496.843H645.326V545.216H634.876Z" fill="#4876EF"/>
<path d="M684.796 495.583C691.436 495.583 697.118 498.036 701.825 502.937C706.532 507.839 708.888 513.872 708.888 521.032C708.888 528.193 706.532 534.144 701.825 539.076C697.118 544.008 691.441 546.476 684.796 546.476C677.442 546.476 671.796 543.737 667.864 538.255V545.222H657.414V477.494H667.864V503.713C671.796 498.296 677.442 495.583 684.796 495.583ZM672.219 532.109C675.121 535.047 678.768 536.511 683.154 536.511C687.54 536.511 691.186 535.042 694.088 532.109C696.99 529.177 698.444 525.479 698.444 521.032C698.444 516.585 696.99 512.888 694.088 509.955C691.186 507.023 687.54 505.554 683.154 505.554C678.768 505.554 675.121 507.023 672.219 509.955C669.317 512.893 667.864 516.585 667.864 521.032C667.864 525.479 669.317 529.177 672.219 532.109Z" fill="#4876EF"/>
<path d="M726.595 525.479C727.37 529.157 729.14 531.977 731.914 533.945C734.688 535.914 738.075 536.898 742.073 536.898C747.622 536.898 751.779 534.899 754.553 530.901L763.162 535.929C758.388 542.962 751.325 546.476 741.971 546.476C734.102 546.476 727.747 544.074 722.913 539.27C718.073 534.466 715.655 528.386 715.655 521.032C715.655 513.678 718.042 507.762 722.816 502.892C727.589 498.021 733.714 495.588 741.196 495.588C748.29 495.588 754.114 498.072 758.658 503.039C763.208 508.007 765.477 514.035 765.477 521.134C765.477 522.231 765.35 523.684 765.09 525.49H726.585L726.595 525.479ZM726.498 516.968H754.946C754.237 513.035 752.605 510.067 750.06 508.068C747.51 506.069 744.526 505.069 741.109 505.069C737.238 505.069 734.015 506.135 731.435 508.262C728.854 510.389 727.212 513.29 726.503 516.968H726.498Z" fill="#4876EF"/>
<path d="M175.165 597.727V638H168.549V609.291L156.294 629.543H155.489L143.234 609.234V638H136.618V597.727H143.752L155.891 617.863L168.088 597.727H175.165ZM204.424 609.234H210.638V638H204.424V633.858C202.085 637.118 198.729 638.748 194.356 638.748C190.406 638.748 187.03 637.29 184.23 634.375C181.43 631.422 180.03 627.836 180.03 623.617C180.03 619.359 181.43 615.773 184.23 612.858C187.03 609.943 190.406 608.486 194.356 608.486C198.729 608.486 202.085 610.097 204.424 613.318V609.234ZM188.833 630.233C190.559 631.959 192.726 632.822 195.334 632.822C197.942 632.822 200.109 631.959 201.835 630.233C203.561 628.469 204.424 626.263 204.424 623.617C204.424 620.97 203.561 618.784 201.835 617.058C200.109 615.294 197.942 614.412 195.334 614.412C192.726 614.412 190.559 615.294 188.833 617.058C187.107 618.784 186.244 620.97 186.244 623.617C186.244 626.263 187.107 628.469 188.833 630.233ZM242.159 638H234.738L222.943 624.71V638H216.73V597.727H222.943V621.948L234.105 609.234H241.699L229.042 623.329L242.159 638ZM247.775 626.263C248.235 628.45 249.29 630.137 250.939 631.326C252.589 632.477 254.602 633.052 256.98 633.052C260.279 633.052 262.753 631.863 264.402 629.485L269.522 632.477C266.684 636.658 262.484 638.748 256.923 638.748C252.243 638.748 248.465 637.329 245.589 634.49C242.712 631.614 241.274 627.989 241.274 623.617C241.274 619.321 242.693 615.735 245.531 612.858C248.37 609.943 252.013 608.486 256.463 608.486C260.682 608.486 264.134 609.962 266.818 612.916C269.542 615.869 270.903 619.455 270.903 623.674C270.903 624.326 270.827 625.189 270.673 626.263H247.775ZM247.718 621.2H264.632C264.21 618.861 263.232 617.096 261.698 615.907C260.202 614.718 258.438 614.124 256.405 614.124C254.104 614.124 252.186 614.757 250.652 616.022C249.117 617.288 248.139 619.014 247.718 621.2ZM319.866 608.486C323.126 608.486 325.753 609.54 327.748 611.65C329.742 613.759 330.739 616.598 330.739 620.165V638H324.526V620.568C324.526 618.573 324.027 617.039 323.03 615.965C322.033 614.853 320.671 614.296 318.945 614.296C317.027 614.296 315.493 614.929 314.342 616.195C313.23 617.461 312.674 619.359 312.674 621.891V638H306.46V620.568C306.46 618.573 305.981 617.039 305.022 615.965C304.102 614.853 302.778 614.296 301.052 614.296C299.173 614.296 297.639 614.948 296.45 616.253C295.261 617.518 294.666 619.398 294.666 621.891V638H288.453V609.234H294.666V612.686C296.507 609.886 299.25 608.486 302.893 608.486C306.575 608.486 309.299 610.001 311.063 613.031C312.981 610.001 315.915 608.486 319.866 608.486ZM359.022 609.234H365.235V638H359.022V633.858C356.682 637.118 353.326 638.748 348.953 638.748C345.003 638.748 341.628 637.29 338.828 634.375C336.028 631.422 334.628 627.836 334.628 623.617C334.628 619.359 336.028 615.773 338.828 612.858C341.628 609.943 345.003 608.486 348.953 608.486C353.326 608.486 356.682 610.097 359.022 613.318V609.234ZM343.43 630.233C345.156 631.959 347.323 632.822 349.931 632.822C352.54 632.822 354.707 631.959 356.433 630.233C358.159 628.469 359.022 626.263 359.022 623.617C359.022 620.97 358.159 618.784 356.433 617.058C354.707 615.294 352.54 614.412 349.931 614.412C347.323 614.412 345.156 615.294 343.43 617.058C341.704 618.784 340.841 620.97 340.841 623.617C340.841 626.263 341.704 628.469 343.43 630.233ZM386.458 608.486C389.757 608.486 392.422 609.54 394.455 611.65C396.488 613.759 397.504 616.655 397.504 620.337V638H391.291V620.97C391.291 618.822 390.716 617.173 389.565 616.022C388.414 614.872 386.842 614.296 384.847 614.296C382.661 614.296 380.897 614.987 379.554 616.368C378.212 617.71 377.541 619.781 377.541 622.581V638H371.327V609.234H377.541V612.916C379.42 609.962 382.392 608.486 386.458 608.486ZM425.827 609.234H432.041V638H425.827V633.858C423.488 637.118 420.132 638.748 415.759 638.748C411.808 638.748 408.433 637.29 405.633 634.375C402.833 631.422 401.433 627.836 401.433 623.617C401.433 619.359 402.833 615.773 405.633 612.858C408.433 609.943 411.808 608.486 415.759 608.486C420.132 608.486 423.488 610.097 425.827 613.318V609.234ZM410.236 630.233C411.962 631.959 414.129 632.822 416.737 632.822C419.345 632.822 421.512 631.959 423.238 630.233C424.964 628.469 425.827 626.263 425.827 623.617C425.827 620.97 424.964 618.784 423.238 617.058C421.512 615.294 419.345 614.412 416.737 614.412C414.129 614.412 411.962 615.294 410.236 617.058C408.51 618.784 407.647 620.97 407.647 623.617C407.647 626.263 408.51 628.469 410.236 630.233ZM461.031 609.234H467.129V636.677C467.129 641.049 465.691 644.405 462.814 646.745C459.938 649.085 456.447 650.255 452.343 650.255C445.708 650.255 441.163 647.934 438.708 643.293L444.058 640.186C445.554 643.14 448.354 644.616 452.458 644.616C455.143 644.616 457.234 643.907 458.729 642.488C460.264 641.107 461.031 639.17 461.031 636.677V633.167C458.691 636.504 455.354 638.173 451.02 638.173C446.954 638.173 443.522 636.734 440.722 633.858C437.922 630.943 436.522 627.433 436.522 623.329C436.522 619.225 437.922 615.735 440.722 612.858C443.522 609.943 446.954 608.486 451.02 608.486C455.354 608.486 458.691 610.154 461.031 613.491V609.234ZM445.324 629.773C447.089 631.499 449.275 632.362 451.883 632.362C454.491 632.362 456.658 631.499 458.384 629.773C460.149 628.047 461.031 625.899 461.031 623.329C461.031 620.759 460.149 618.611 458.384 616.885C456.658 615.159 454.491 614.296 451.883 614.296C449.275 614.296 447.089 615.159 445.324 616.885C443.598 618.611 442.735 620.759 442.735 623.329C442.735 625.899 443.598 628.047 445.324 629.773ZM479.089 603.768C478.322 604.535 477.402 604.919 476.328 604.919C475.254 604.919 474.314 604.535 473.509 603.768C472.741 602.962 472.358 602.023 472.358 600.949C472.358 599.875 472.741 598.954 473.509 598.187C474.276 597.382 475.215 596.979 476.328 596.979C477.44 596.979 478.38 597.382 479.147 598.187C479.914 598.954 480.297 599.875 480.297 600.949C480.297 602.023 479.895 602.962 479.089 603.768ZM473.221 638V609.234H479.434V638H473.221ZM500.63 608.486C503.928 608.486 506.594 609.54 508.627 611.65C510.659 613.759 511.676 616.655 511.676 620.337V638H505.462V620.97C505.462 618.822 504.887 617.173 503.736 616.022C502.586 614.872 501.013 614.296 499.019 614.296C496.832 614.296 495.068 614.987 493.726 616.368C492.383 617.71 491.712 619.781 491.712 622.581V638H485.498V609.234H491.712V612.916C493.591 609.962 496.564 608.486 500.63 608.486ZM540.114 609.234H546.212V636.677C546.212 641.049 544.774 644.405 541.897 646.745C539.021 649.085 535.53 650.255 531.426 650.255C524.791 650.255 520.246 647.934 517.791 643.293L523.142 640.186C524.637 643.14 527.437 644.616 531.541 644.616C534.226 644.616 536.317 643.907 537.812 642.488C539.347 641.107 540.114 639.17 540.114 636.677V633.167C537.774 636.504 534.437 638.173 530.103 638.173C526.037 638.173 522.605 636.734 519.805 633.858C517.005 630.943 515.605 627.433 515.605 623.329C515.605 619.225 517.005 615.735 519.805 612.858C522.605 609.943 526.037 608.486 530.103 608.486C534.437 608.486 537.774 610.154 540.114 613.491V609.234ZM524.407 629.773C526.172 631.499 528.358 632.362 530.966 632.362C533.574 632.362 535.741 631.499 537.467 629.773C539.232 628.047 540.114 625.899 540.114 623.329C540.114 620.759 539.232 618.611 537.467 616.885C535.741 615.159 533.574 614.296 530.966 614.296C528.358 614.296 526.172 615.159 524.407 616.885C522.681 618.611 521.818 620.759 521.818 623.329C521.818 625.899 522.681 628.047 524.407 629.773ZM581.818 608.486C585.769 608.486 589.144 609.943 591.944 612.858C594.744 615.773 596.144 619.359 596.144 623.617C596.144 627.836 594.744 631.422 591.944 634.375C589.144 637.29 585.769 638.748 581.818 638.748C577.446 638.748 574.09 637.118 571.75 633.858V638H565.537V597.727H571.75V613.318C574.09 610.097 577.446 608.486 581.818 608.486ZM574.339 630.233C576.065 631.959 578.232 632.822 580.84 632.822C583.448 632.822 585.616 631.959 587.342 630.233C589.067 628.469 589.93 626.263 589.93 623.617C589.93 620.97 589.067 618.784 587.342 617.058C585.616 615.294 583.448 614.412 580.84 614.412C578.232 614.412 576.065 615.294 574.339 617.058C572.613 618.784 571.75 620.97 571.75 623.617C571.75 626.263 572.613 628.469 574.339 630.233ZM620.013 609.234H626.227V638H620.013V634.318C618.134 637.271 615.162 638.748 611.096 638.748C607.797 638.748 605.132 637.693 603.099 635.584C601.066 633.474 600.05 630.578 600.05 626.896V609.234H606.263V626.263C606.263 628.411 606.838 630.06 607.989 631.211C609.14 632.362 610.712 632.937 612.707 632.937C614.893 632.937 616.657 632.266 618 630.923C619.342 629.543 620.013 627.452 620.013 624.652V609.234ZM637.754 617.173C637.754 618.132 638.272 618.899 639.308 619.474C640.382 620.011 641.667 620.491 643.162 620.913C644.697 621.296 646.231 621.757 647.765 622.294C649.299 622.83 650.584 623.751 651.62 625.055C652.694 626.321 653.231 627.932 653.231 629.888C653.231 632.649 652.157 634.817 650.009 636.389C647.899 637.962 645.234 638.748 642.012 638.748C639.173 638.748 636.738 638.153 634.705 636.964C632.672 635.775 631.196 634.126 630.275 632.017L635.626 628.91C636.623 631.671 638.752 633.052 642.012 633.052C645.272 633.052 646.902 631.978 646.902 629.83C646.902 628.91 646.365 628.162 645.291 627.587C644.255 627.011 642.971 626.532 641.436 626.148C639.941 625.726 638.425 625.247 636.891 624.71C635.357 624.173 634.053 623.291 632.979 622.063C631.943 620.798 631.426 619.206 631.426 617.288C631.426 614.642 632.423 612.513 634.417 610.902C636.45 609.291 638.962 608.486 641.954 608.486C644.332 608.486 646.442 609.023 648.283 610.097C650.162 611.132 651.601 612.59 652.598 614.469L647.362 617.403C646.365 615.217 644.562 614.124 641.954 614.124C640.765 614.124 639.768 614.392 638.962 614.929C638.157 615.428 637.754 616.176 637.754 617.173ZM663.073 603.768C662.306 604.535 661.386 604.919 660.312 604.919C659.238 604.919 658.298 604.535 657.493 603.768C656.725 602.962 656.342 602.023 656.342 600.949C656.342 599.875 656.725 598.954 657.493 598.187C658.26 597.382 659.199 596.979 660.312 596.979C661.424 596.979 662.364 597.382 663.131 598.187C663.898 598.954 664.281 599.875 664.281 600.949C664.281 602.023 663.879 602.962 663.073 603.768ZM657.205 638V609.234H663.418V638H657.205ZM684.614 608.486C687.912 608.486 690.578 609.54 692.611 611.65C694.643 613.759 695.66 616.655 695.66 620.337V638H689.446V620.97C689.446 618.822 688.871 617.173 687.72 616.022C686.57 614.872 684.997 614.296 683.003 614.296C680.816 614.296 679.052 614.987 677.71 616.368C676.367 617.71 675.696 619.781 675.696 622.581V638H669.482V609.234H675.696V612.916C677.575 609.962 680.548 608.486 684.614 608.486ZM706.09 626.263C706.55 628.45 707.605 630.137 709.254 631.326C710.904 632.477 712.917 633.052 715.295 633.052C718.594 633.052 721.068 631.863 722.717 629.485L727.837 632.477C724.999 636.658 720.799 638.748 715.238 638.748C710.558 638.748 706.78 637.329 703.904 634.49C701.027 631.614 699.589 627.989 699.589 623.617C699.589 619.321 701.008 615.735 703.846 612.858C706.684 609.943 710.328 608.486 714.777 608.486C718.996 608.486 722.448 609.962 725.133 612.916C727.857 615.869 729.218 619.455 729.218 623.674C729.218 624.326 729.141 625.189 728.988 626.263H706.09ZM706.032 621.2H722.947C722.525 618.861 721.547 617.096 720.013 615.907C718.517 614.718 716.753 614.124 714.72 614.124C712.419 614.124 710.501 614.757 708.967 616.022C707.432 617.288 706.454 619.014 706.032 621.2ZM737.992 617.173C737.992 618.132 738.51 618.899 739.545 619.474C740.619 620.011 741.904 620.491 743.4 620.913C744.934 621.296 746.468 621.757 748.003 622.294C749.537 622.83 750.822 623.751 751.857 625.055C752.931 626.321 753.468 627.932 753.468 629.888C753.468 632.649 752.394 634.817 750.246 636.389C748.137 637.962 745.471 638.748 742.249 638.748C739.411 638.748 736.975 638.153 734.943 636.964C732.91 635.775 731.433 634.126 730.513 632.017L735.863 628.91C736.86 631.671 738.989 633.052 742.249 633.052C745.51 633.052 747.14 631.978 747.14 629.83C747.14 628.91 746.603 628.162 745.529 627.587C744.493 627.011 743.208 626.532 741.674 626.148C740.178 625.726 738.663 625.247 737.129 624.71C735.595 624.173 734.291 623.291 733.217 622.063C732.181 620.798 731.663 619.206 731.663 617.288C731.663 614.642 732.661 612.513 734.655 610.902C736.688 609.291 739.2 608.486 742.192 608.486C744.57 608.486 746.679 609.023 748.52 610.097C750.4 611.132 751.838 612.59 752.835 614.469L747.6 617.403C746.603 615.217 744.8 614.124 742.192 614.124C741.003 614.124 740.006 614.392 739.2 614.929C738.395 615.428 737.992 616.176 737.992 617.173ZM761.619 617.173C761.619 618.132 762.136 618.899 763.172 619.474C764.246 620.011 765.531 620.491 767.027 620.913C768.561 621.296 770.095 621.757 771.629 622.294C773.164 622.83 774.448 623.751 775.484 625.055C776.558 626.321 777.095 627.932 777.095 629.888C777.095 632.649 776.021 634.817 773.873 636.389C771.764 637.962 769.098 638.748 765.876 638.748C763.038 638.748 760.602 638.153 758.569 636.964C756.537 635.775 755.06 634.126 754.139 632.017L759.49 628.91C760.487 631.671 762.616 633.052 765.876 633.052C769.136 633.052 770.766 631.978 770.766 629.83C770.766 628.91 770.229 628.162 769.155 627.587C768.12 627.011 766.835 626.532 765.301 626.148C763.805 625.726 762.29 625.247 760.756 624.71C759.221 624.173 757.917 623.291 756.843 622.063C755.808 620.798 755.29 619.206 755.29 617.288C755.29 614.642 756.287 612.513 758.282 610.902C760.315 609.291 762.827 608.486 765.819 608.486C768.197 608.486 770.306 609.023 772.147 610.097C774.027 611.132 775.465 612.59 776.462 614.469L771.227 617.403C770.229 615.217 768.427 614.124 765.819 614.124C764.629 614.124 763.632 614.392 762.827 614.929C762.021 615.428 761.619 616.176 761.619 617.173Z" fill="black" fill-opacity="0.75"/>
<path d="M799.529 626.263C799.989 628.45 801.044 630.137 802.693 631.326C804.343 632.477 806.356 633.052 808.734 633.052C812.033 633.052 814.507 631.863 816.156 629.485L821.277 632.477C818.438 636.658 814.238 638.748 808.677 638.748C803.998 638.748 800.22 637.329 797.343 634.49C794.466 631.614 793.028 627.989 793.028 623.617C793.028 619.321 794.447 615.735 797.285 612.858C800.124 609.943 803.767 608.486 808.217 608.486C812.436 608.486 815.888 609.962 818.573 612.916C821.296 615.869 822.657 619.455 822.657 623.674C822.657 624.326 822.581 625.189 822.427 626.263H799.529ZM799.472 621.2H816.386C815.964 618.861 814.986 617.096 813.452 615.907C811.956 614.718 810.192 614.124 808.159 614.124C805.858 614.124 803.94 614.757 802.406 616.022C800.872 617.288 799.894 619.014 799.472 621.2ZM849.589 609.234H855.802V638H849.589V633.858C847.249 637.118 843.893 638.748 839.52 638.748C835.57 638.748 832.195 637.29 829.395 634.375C826.595 631.422 825.195 627.836 825.195 623.617C825.195 619.359 826.595 615.773 829.395 612.858C832.195 609.943 835.57 608.486 839.52 608.486C843.893 608.486 847.249 610.097 849.589 613.318V609.234ZM833.997 630.233C835.723 631.959 837.89 632.822 840.498 632.822C843.107 632.822 845.274 631.959 847 630.233C848.726 628.469 849.589 626.263 849.589 623.617C849.589 620.97 848.726 618.784 847 617.058C845.274 615.294 843.107 614.412 840.498 614.412C837.89 614.412 835.723 615.294 833.997 617.058C832.271 618.784 831.408 620.97 831.408 623.617C831.408 626.263 832.271 628.469 833.997 630.233ZM867.306 617.173C867.306 618.132 867.824 618.899 868.859 619.474C869.933 620.011 871.218 620.491 872.714 620.913C874.248 621.296 875.783 621.757 877.317 622.294C878.851 622.83 880.136 623.751 881.172 625.055C882.245 626.321 882.782 627.932 882.782 629.888C882.782 632.649 881.709 634.817 879.561 636.389C877.451 637.962 874.785 638.748 871.564 638.748C868.725 638.748 866.29 638.153 864.257 636.964C862.224 635.775 860.747 634.126 859.827 632.017L865.177 628.91C866.175 631.671 868.303 633.052 871.564 633.052C874.824 633.052 876.454 631.978 876.454 629.83C876.454 628.91 875.917 628.162 874.843 627.587C873.807 627.011 872.522 626.532 870.988 626.148C869.492 625.726 867.977 625.247 866.443 624.71C864.909 624.173 863.605 623.291 862.531 622.063C861.495 620.798 860.977 619.206 860.977 617.288C860.977 614.642 861.975 612.513 863.969 610.902C866.002 609.291 868.514 608.486 871.506 608.486C873.884 608.486 875.994 609.023 877.835 610.097C879.714 611.132 881.152 612.59 882.15 614.469L876.914 617.403C875.917 615.217 874.114 614.124 871.506 614.124C870.317 614.124 869.32 614.392 868.514 614.929C867.709 615.428 867.306 616.176 867.306 617.173ZM892.625 603.768C891.858 604.535 890.938 604.919 889.864 604.919C888.79 604.919 887.85 604.535 887.044 603.768C886.277 602.962 885.894 602.023 885.894 600.949C885.894 599.875 886.277 598.954 887.044 598.187C887.812 597.382 888.751 596.979 889.864 596.979C890.976 596.979 891.916 597.382 892.683 598.187C893.45 598.954 893.833 599.875 893.833 600.949C893.833 602.023 893.431 602.962 892.625 603.768ZM886.757 638V609.234H892.97V638H886.757ZM903.924 626.263C904.385 628.45 905.439 630.137 907.089 631.326C908.738 632.477 910.752 633.052 913.13 633.052C916.428 633.052 918.902 631.863 920.551 629.485L925.672 632.477C922.834 636.658 918.634 638.748 913.072 638.748C908.393 638.748 904.615 637.329 901.738 634.49C898.862 631.614 897.423 627.989 897.423 623.617C897.423 619.321 898.842 615.735 901.681 612.858C904.519 609.943 908.163 608.486 912.612 608.486C916.831 608.486 920.283 609.962 922.968 612.916C925.691 615.869 927.053 619.455 927.053 623.674C927.053 624.326 926.976 625.189 926.823 626.263H903.924ZM903.867 621.2H920.782C920.36 618.861 919.382 617.096 917.847 615.907C916.352 614.718 914.587 614.124 912.554 614.124C910.253 614.124 908.335 614.757 906.801 616.022C905.267 617.288 904.289 619.014 903.867 621.2ZM937.583 614.066C939.156 610.499 942.109 608.716 946.443 608.716V615.447C944.065 615.294 941.994 615.869 940.23 617.173C938.465 618.439 937.583 620.548 937.583 623.502V638H931.369V609.234H937.583V614.066Z" fill="#4876EF"/>
<rect x="89.0623" y="190.029" width="221" height="152" rx="26.5" transform="rotate(-10.1555 89.0623 190.029)" fill="#4876EF"/>
<rect x="89.0623" y="190.029" width="221" height="152" rx="26.5" transform="rotate(-10.1555 89.0623 190.029)" stroke="#01D2AB" stroke-width="7"/>
<path d="M146.054 246.002C141.907 246.745 138.224 245.996 135.005 243.756C131.781 241.489 129.807 238.334 129.082 234.292C128.358 230.25 129.116 226.619 131.357 223.4C133.593 220.155 136.784 218.161 140.932 217.417C143.425 216.97 145.828 217.149 148.139 217.954C150.477 218.754 152.418 220.059 153.961 221.869L150.433 224.858C149.453 223.625 148.184 222.741 146.626 222.208C145.089 221.644 143.454 221.517 141.722 221.827C138.782 222.354 136.56 223.714 135.057 225.907C133.58 228.095 133.098 230.62 133.61 233.481C134.123 236.342 135.452 238.542 137.597 240.081C139.768 241.615 142.324 242.119 145.264 241.592C146.996 241.282 148.501 240.606 149.777 239.564C151.049 238.497 151.916 237.217 152.38 235.725L156.72 237.263C155.927 239.492 154.576 241.4 152.666 242.988C150.778 244.546 148.574 245.55 146.054 246.002ZM172.537 220.409L176.79 219.647L180.318 239.333L176.065 240.095L175.557 237.261C174.356 239.779 172.259 241.306 169.267 241.842C166.563 242.327 164.075 241.743 161.801 240.092C159.523 238.414 158.125 236.131 157.607 233.244C157.085 230.33 157.603 227.704 159.162 225.366C160.721 223.028 162.852 221.616 165.555 221.132C168.548 220.596 171.042 221.287 173.038 223.204L172.537 220.409ZM164.443 236.692C165.836 237.662 167.425 237.987 169.209 237.667C170.994 237.347 172.372 236.49 173.341 235.098C174.306 233.678 174.626 232.063 174.301 230.252C173.977 228.441 173.118 227.051 171.725 226.081C170.328 225.085 168.736 224.748 166.952 225.067C165.167 225.387 163.792 226.257 162.827 227.676C161.857 229.069 161.535 230.671 161.86 232.482C162.184 234.293 163.045 235.696 164.443 236.692ZM192.009 216.391C194.713 215.907 197.204 216.503 199.482 218.181C201.756 219.833 203.151 222.102 203.669 224.989C204.191 227.903 203.673 230.529 202.114 232.867C200.555 235.205 198.424 236.617 195.721 237.101C192.728 237.638 190.234 236.947 188.238 235.029L190.15 245.699L185.898 246.461L180.959 218.9L185.211 218.138L185.719 220.973C186.92 218.455 189.017 216.927 192.009 216.391ZM189.558 232.191C190.951 233.161 192.54 233.486 194.325 233.166C196.11 232.846 197.487 231.99 198.456 230.597C199.421 229.178 199.741 227.563 199.417 225.751C199.092 223.94 198.233 222.55 196.84 221.58C195.443 220.585 193.852 220.247 192.067 220.567C190.282 220.886 188.907 221.756 187.942 223.175C186.973 224.568 186.65 226.17 186.975 227.981C187.299 229.792 188.16 231.196 189.558 232.191ZM216.306 216.792L211.423 217.667L213.117 227.116C213.263 227.93 213.552 228.487 213.986 228.789C214.414 229.064 214.988 229.165 215.706 229.09C216.445 228.985 217.349 228.81 218.415 228.564L219.1 232.383C215.915 233.36 213.53 233.503 211.943 232.812C210.352 232.095 209.326 230.45 208.865 227.878L207.171 218.429L203.549 219.078L202.815 214.983L206.437 214.334L205.675 210.082L209.702 208.06L210.69 213.572L215.572 212.697L216.306 216.792ZM232.102 209.735L236.354 208.973L239.882 228.659L235.63 229.421L235.178 226.901C234.254 229.153 232.401 230.528 229.619 231.027C227.361 231.431 225.408 231.036 223.758 229.842C222.108 228.647 221.057 226.79 220.606 224.27L218.44 212.183L222.692 211.421L224.78 223.075C225.044 224.545 225.64 225.603 226.568 226.25C227.497 226.896 228.644 227.097 230.009 226.852C231.505 226.584 232.63 225.908 233.384 224.825C234.133 223.716 234.336 222.203 233.993 220.287L232.102 209.735ZM245.384 210.768C246.023 208.134 247.825 206.551 250.791 206.02L251.617 210.626C249.971 210.813 248.624 211.461 247.576 212.569C246.524 213.652 246.179 215.204 246.541 217.225L248.319 227.147L244.067 227.909L240.539 208.223L244.791 207.461L245.384 210.768ZM257.722 217.172C258.305 218.612 259.233 219.637 260.508 220.249C261.778 220.834 263.226 220.981 264.854 220.689C267.111 220.284 268.658 219.167 269.495 217.338L273.366 218.757C271.937 221.966 269.319 223.912 265.513 224.594C262.311 225.168 259.551 224.66 257.234 223.07C254.913 221.455 253.484 219.15 252.948 216.158C252.421 213.218 252.952 210.59 254.542 208.273C256.127 205.93 258.442 204.486 261.487 203.94C264.374 203.423 266.917 204.01 269.117 205.702C271.343 207.389 272.714 209.676 273.232 212.564C273.312 213.01 273.365 213.61 273.392 214.364L257.722 217.172ZM257.061 213.714L268.637 211.64C268.061 210.09 267.175 209.003 265.98 208.377C264.81 207.747 263.53 207.557 262.139 207.806C260.564 208.088 259.329 208.756 258.434 209.811C257.539 210.865 257.082 212.166 257.061 213.714ZM141.298 296.107L136.147 267.365L140.399 266.602L145.55 295.345L141.298 296.107ZM151.607 285.969C152.19 287.409 153.119 288.434 154.394 289.046C155.663 289.631 157.112 289.778 158.739 289.486C160.997 289.082 162.544 287.965 163.381 286.135L167.252 287.554C165.823 290.763 163.205 292.709 159.399 293.391C156.196 293.965 153.437 293.457 151.12 291.868C148.799 290.252 147.37 287.948 146.834 284.955C146.307 282.015 146.838 279.387 148.428 277.07C150.013 274.727 152.327 273.283 155.372 272.737C158.26 272.22 160.803 272.807 163.003 274.499C165.229 276.186 166.6 278.474 167.118 281.361C167.198 281.807 167.251 282.407 167.278 283.161L151.607 285.969ZM150.947 282.511L162.523 280.437C161.947 278.888 161.061 277.8 159.865 277.174C158.696 276.544 157.416 276.354 156.024 276.603C154.449 276.885 153.215 277.554 152.32 278.608C151.425 279.662 150.968 280.963 150.947 282.511ZM183.777 268.175L188.029 267.413L191.557 287.1L187.305 287.862L186.797 285.027C185.596 287.545 183.499 289.072 180.506 289.608C177.803 290.093 175.314 289.509 173.041 287.858C170.762 286.18 169.364 283.898 168.847 281.01C168.325 278.097 168.843 275.471 170.402 273.133C171.96 270.794 174.091 269.383 176.795 268.898C179.787 268.362 182.282 269.053 184.278 270.971L183.777 268.175ZM175.682 284.459C177.075 285.428 178.664 285.753 180.449 285.433C182.234 285.113 183.611 284.257 184.581 282.864C185.545 281.445 185.866 279.83 185.541 278.019C185.216 276.207 184.358 274.817 182.965 273.848C181.567 272.852 179.976 272.514 178.191 272.834C176.406 273.154 175.031 274.023 174.067 275.442C173.097 276.835 172.775 278.437 173.099 280.248C173.424 282.059 174.285 283.463 175.682 284.459ZM206.379 255.998L210.631 255.236L215.57 282.796L211.318 283.559L210.81 280.724C209.608 283.242 207.512 284.769 204.519 285.305C201.816 285.79 199.327 285.206 197.053 283.555C194.775 281.877 193.377 279.594 192.86 276.707C192.338 273.793 192.856 271.168 194.414 268.829C195.973 266.491 198.104 265.08 200.808 264.595C203.8 264.059 206.294 264.75 208.291 266.668L206.379 255.998ZM199.695 280.155C201.088 281.125 202.677 281.45 204.462 281.13C206.247 280.81 207.624 279.954 208.593 278.561C209.558 277.142 209.878 275.526 209.554 273.715C209.229 271.904 208.37 270.514 206.978 269.544C205.58 268.549 203.989 268.211 202.204 268.531C200.419 268.85 199.044 269.72 198.079 271.139C197.11 272.532 196.787 274.134 197.112 275.945C197.437 277.756 198.298 279.16 199.695 280.155ZM220.888 267.133C221.006 267.789 221.454 268.25 222.234 268.517C223.035 268.753 223.973 268.923 225.048 269.029C226.145 269.103 227.251 269.23 228.367 269.409C229.483 269.588 230.475 270.061 231.344 270.826C232.234 271.561 232.799 272.597 233.039 273.936C233.378 275.826 232.909 277.441 231.632 278.78C230.381 280.115 228.653 280.98 226.448 281.375C224.506 281.723 222.766 281.615 221.229 281.051C219.692 280.486 218.479 279.539 217.59 278.208L220.871 275.426C221.892 277.193 223.518 277.877 225.749 277.477C227.981 277.078 228.964 276.143 228.701 274.673C228.588 274.043 228.129 273.597 227.323 273.335C226.544 273.068 225.606 272.898 224.509 272.823C223.434 272.718 222.338 272.576 221.222 272.396C220.106 272.217 219.106 271.773 218.22 271.065C217.356 270.326 216.807 269.3 216.572 267.988C216.247 266.176 216.668 264.597 217.836 263.25C219.029 261.899 220.65 261.039 222.697 260.672C224.325 260.381 225.834 260.489 227.226 260.999C228.639 261.477 229.802 262.298 230.715 263.462L227.492 266.112C226.541 264.738 225.174 264.211 223.389 264.531C222.575 264.677 221.925 264.983 221.44 265.449C220.95 265.889 220.766 266.45 220.888 267.133Z" fill="white"/>
<g clip-path="url(#clip1_662_4258)">
<rect x="141" y="817.303" width="269.289" height="159" rx="30" transform="rotate(-1.97985 141 817.303)" fill="#01D2AB"/>
<path d="M189.166 855.787C191.804 855.696 194.034 856.499 195.854 858.197C197.7 859.894 198.669 862.049 198.759 864.661C198.849 867.246 198.032 869.462 196.308 871.309C194.61 873.129 192.442 874.085 189.803 874.176L184.087 874.374L184.419 883.969L179.822 884.128L178.852 856.145L189.166 855.787ZM189.654 869.859C191.013 869.812 192.116 869.32 192.964 868.383C193.812 867.42 194.211 866.232 194.162 864.82C194.113 863.407 193.633 862.263 192.722 861.388C191.81 860.485 190.675 860.058 189.316 860.105L183.599 860.303L183.937 870.057L189.654 869.859ZM205.673 866.582C206.68 864.066 208.689 862.756 211.7 862.651L211.862 867.328C210.206 867.279 208.781 867.729 207.587 868.677C206.391 869.599 205.829 871.086 205.9 873.138L206.249 883.212L201.932 883.362L201.239 863.374L205.557 863.224L205.673 866.582ZM223.311 883.141C220.38 883.243 217.853 882.317 215.73 880.362C213.608 878.408 212.496 875.952 212.393 872.993C212.291 870.035 213.23 867.508 215.212 865.411C217.194 863.315 219.651 862.216 222.583 862.114C225.541 862.012 228.068 862.938 230.163 864.893C232.286 866.848 233.398 869.304 233.501 872.262C233.603 875.22 232.663 877.748 230.681 879.844C228.726 881.94 226.269 883.039 223.311 883.141ZM218.666 877.299C219.907 878.457 221.407 879.005 223.166 878.944C224.925 878.883 226.383 878.232 227.541 876.991C228.699 875.75 229.246 874.224 229.183 872.412C229.12 870.599 228.469 869.114 227.228 867.957C225.987 866.799 224.487 866.251 222.728 866.312C220.969 866.372 219.511 867.023 218.353 868.264C217.195 869.505 216.648 871.032 216.711 872.844C216.773 874.656 217.425 876.141 218.666 877.299ZM251.812 853.617L256.13 853.467L257.099 881.45L252.782 881.6L252.682 878.722C251.135 881.043 248.842 882.257 245.804 882.362C243.059 882.457 240.679 881.526 238.663 879.568C236.646 877.583 235.587 875.125 235.486 872.193C235.383 869.235 236.27 866.71 238.145 864.617C240.02 862.524 242.33 861.43 245.075 861.335C248.114 861.229 250.484 862.268 252.188 864.45L251.812 853.617ZM241.761 876.579C243.002 877.736 244.529 878.284 246.341 878.221C248.153 878.158 249.638 877.506 250.796 876.266C251.953 874.998 252.499 873.445 252.435 871.606C252.372 869.767 251.719 868.269 250.479 867.111C249.237 865.927 247.71 865.366 245.898 865.429C244.085 865.492 242.601 866.157 241.444 867.424C240.286 868.665 239.739 870.205 239.803 872.044C239.867 873.883 240.52 875.394 241.761 876.579ZM274.111 860.849L278.429 860.699L279.121 880.687L274.804 880.837L274.715 878.279C273.48 880.376 271.451 881.474 268.626 881.571C266.334 881.651 264.456 880.982 262.993 879.565C261.529 878.148 260.754 876.161 260.665 873.602L260.24 861.33L264.557 861.18L264.967 873.013C265.019 874.505 265.458 875.638 266.285 876.409C267.113 877.181 268.219 877.543 269.605 877.495C271.124 877.442 272.334 876.934 273.234 875.968C274.134 874.977 274.55 873.508 274.483 871.563L274.111 860.849ZM292.823 880.733C289.811 880.837 287.258 879.912 285.162 877.957C283.093 876 282.007 873.543 281.905 870.585C281.801 867.6 282.714 865.074 284.644 863.006C286.599 860.91 289.083 859.81 292.094 859.706C294.04 859.638 295.828 860.043 297.459 860.921C299.091 861.798 300.333 863.009 301.187 864.554L297.544 866.841C297.058 865.897 296.339 865.175 295.388 864.675C294.463 864.146 293.4 863.903 292.201 863.944C290.442 864.005 288.984 864.656 287.826 865.897C286.695 867.137 286.16 868.65 286.222 870.435C286.284 872.221 286.922 873.693 288.136 874.852C289.377 876.01 290.877 876.558 292.636 876.497C293.808 876.456 294.851 876.14 295.765 875.548C296.705 874.955 297.399 874.184 297.846 873.235L301.637 875.225C300.84 876.853 299.658 878.161 298.091 879.15C296.524 880.138 294.768 880.666 292.823 880.733ZM314.725 863.604L309.768 863.776L310.101 873.37C310.129 874.197 310.336 874.79 310.723 875.15C311.108 875.483 311.661 875.664 312.382 875.693C313.129 875.694 314.048 875.648 315.139 875.557L315.274 879.435C311.983 879.949 309.601 879.751 308.129 878.842C306.656 877.906 305.874 876.132 305.783 873.52L305.451 863.926L301.773 864.053L301.629 859.896L305.307 859.768L305.157 855.451L309.43 854.022L309.624 859.619L314.581 859.447L314.725 863.604ZM321.024 864.747C321.047 865.413 321.426 865.934 322.159 866.309C322.918 866.656 323.823 866.958 324.872 867.215C325.947 867.445 327.025 867.728 328.104 868.064C329.182 868.4 330.097 869.009 330.848 869.89C331.625 870.743 332.037 871.85 332.084 873.209C332.151 875.128 331.456 876.659 330.002 877.804C328.574 878.947 326.741 879.558 324.502 879.635C322.53 879.704 320.823 879.349 319.382 878.572C317.941 877.795 316.875 876.684 316.185 875.241L319.828 872.953C320.587 874.848 322.1 875.756 324.365 875.678C326.63 875.599 327.737 874.814 327.685 873.321C327.663 872.682 327.272 872.175 326.512 871.801C325.779 871.426 324.874 871.124 323.799 870.895C322.749 870.637 321.685 870.341 320.606 870.005C319.527 869.668 318.6 869.087 317.824 868.26C317.074 867.405 316.676 866.312 316.63 864.979C316.566 863.14 317.208 861.637 318.555 860.47C319.929 859.302 321.655 858.681 323.734 858.609C325.386 858.552 326.865 858.874 328.17 859.576C329.5 860.251 330.535 861.229 331.273 862.511L327.706 864.675C326.96 863.18 325.681 862.464 323.869 862.527C323.043 862.556 322.357 862.766 321.81 863.159C321.262 863.525 321 864.054 321.024 864.747ZM367.687 876.218L364.044 878.506L361.266 875.72C359.115 877.556 356.547 878.525 353.562 878.629C350.71 878.727 348.366 878.075 346.53 876.671C344.72 875.266 343.772 873.298 343.684 870.766C343.626 869.087 343.985 867.527 344.763 866.086C345.566 864.644 346.753 863.469 348.323 862.56C347.206 861.131 346.616 859.524 346.555 857.739C346.473 855.393 347.22 853.46 348.795 851.938C350.397 850.415 352.397 849.611 354.795 849.528C356.714 849.462 358.464 849.908 360.045 850.867C361.626 851.827 362.821 853.226 363.632 855.066L359.792 857.44C359.38 856.334 358.75 855.475 357.902 854.864C357.053 854.253 356.083 853.966 354.99 854.004C353.871 854.043 352.936 854.409 352.187 855.102C351.463 855.768 351.119 856.633 351.156 857.699C351.175 858.259 351.315 858.814 351.574 859.366C351.833 859.917 352.102 860.375 352.382 860.739C352.687 861.075 353.13 861.527 353.71 862.094L360.76 869.214C361.38 867.831 361.803 866.189 362.031 864.287L366.026 866.39C365.624 868.645 364.919 870.644 363.912 872.386L367.687 876.218ZM353.654 874.343C355.439 874.281 356.968 873.734 358.24 872.703L351.108 865.546C349.17 866.6 348.237 868.167 348.309 870.245C348.354 871.551 348.843 872.575 349.776 873.316C350.709 874.058 352.001 874.4 353.654 874.343ZM190.851 933.296C188.159 933.389 185.846 932.855 183.911 931.695C182.003 930.534 180.639 928.9 179.819 926.794L183.696 924.338C184.925 927.444 187.298 928.936 190.816 928.814C192.548 928.754 193.829 928.376 194.659 927.68C195.514 926.957 195.923 926.049 195.885 924.956C195.845 923.81 195.349 922.96 194.396 922.406C193.442 921.826 191.767 921.217 189.37 920.579C188.023 920.226 186.931 919.89 186.093 919.572C185.255 919.254 184.359 918.805 183.405 918.224C182.476 917.616 181.769 916.853 181.284 915.936C180.799 915.019 180.534 913.934 180.491 912.682C180.405 910.203 181.217 908.214 182.926 906.714C184.634 905.187 186.727 904.381 189.206 904.295C191.444 904.218 193.422 904.696 195.139 905.731C196.856 906.765 198.201 908.226 199.173 910.113L195.373 912.486C194.11 909.915 192.106 908.677 189.361 908.772C188.028 908.819 186.973 909.175 186.196 909.843C185.418 910.483 185.047 911.337 185.084 912.403C185.12 913.442 185.548 914.254 186.369 914.84C187.216 915.397 188.716 915.972 190.872 916.565C191.95 916.874 192.732 917.114 193.218 917.284C193.73 917.426 194.432 917.669 195.324 918.011C196.243 918.353 196.936 918.703 197.402 919.06C197.868 919.418 198.364 919.867 198.89 920.409C199.442 920.951 199.837 921.577 200.075 922.29C200.313 923.002 200.448 923.811 200.48 924.717C200.567 927.249 199.718 929.293 197.93 930.849C196.169 932.377 193.809 933.193 190.851 933.296ZM207.29 924.041C207.663 925.549 208.436 926.696 209.611 927.482C210.785 928.242 212.198 928.594 213.85 928.536C216.142 928.457 217.832 927.571 218.921 925.879L222.551 927.835C220.679 930.808 217.811 932.361 213.947 932.495C210.696 932.608 208.036 931.713 205.969 929.81C203.901 927.88 202.815 925.397 202.709 922.358C202.606 919.373 203.506 916.847 205.409 914.78C207.311 912.687 209.807 911.586 212.899 911.479C215.83 911.377 218.264 912.32 220.201 914.308C222.164 916.294 223.197 918.753 223.298 921.685C223.314 922.138 223.282 922.74 223.201 923.489L207.29 924.041ZM207.128 920.524L218.881 920.117C218.532 918.501 217.81 917.299 216.715 916.51C215.647 915.72 214.407 915.349 212.994 915.398C211.395 915.453 210.078 915.939 209.043 916.856C208.007 917.772 207.369 918.995 207.128 920.524ZM230.384 914.755C231.391 912.239 233.4 910.929 236.411 910.824L236.573 915.502C234.917 915.452 233.492 915.902 232.298 916.85C231.102 917.772 230.54 919.259 230.611 921.312L230.96 931.386L226.643 931.535L225.95 911.547L230.268 911.398L230.384 914.755ZM252.366 910.632L257.083 910.468L249.981 930.727L244.984 930.9L236.496 911.182L241.213 911.018L247.336 926.015L252.366 910.632ZM262.964 906.462C262.449 907.014 261.819 907.303 261.073 907.328C260.326 907.354 259.664 907.11 259.086 906.597C258.534 906.056 258.245 905.412 258.219 904.666C258.193 903.919 258.437 903.271 258.952 902.719C259.465 902.141 260.109 901.838 260.881 901.812C261.654 901.785 262.317 902.042 262.869 902.583C263.421 903.098 263.71 903.728 263.735 904.474C263.761 905.221 263.504 905.883 262.964 906.462ZM259.71 930.389L259.018 910.401L263.335 910.252L264.028 930.24L259.71 930.389ZM277.694 930.287C274.682 930.391 272.128 929.466 270.033 927.51C267.964 925.554 266.878 923.097 266.776 920.139C266.672 917.154 267.585 914.627 269.515 912.559C271.47 910.464 273.953 909.364 276.965 909.259C278.91 909.192 280.699 909.597 282.33 910.474C283.962 911.352 285.204 912.563 286.058 914.107L282.415 916.395C281.929 915.451 281.21 914.729 280.259 914.228C279.333 913.7 278.271 913.457 277.072 913.498C275.313 913.559 273.855 914.21 272.697 915.451C271.566 916.691 271.031 918.203 271.093 919.989C271.155 921.775 271.793 923.247 273.007 924.405C274.248 925.563 275.748 926.111 277.507 926.051C278.679 926.01 279.722 925.694 280.636 925.102C281.576 924.509 282.269 923.738 282.717 922.788L286.508 924.778C285.711 926.407 284.529 927.715 282.962 928.703C281.395 929.691 279.639 930.219 277.694 930.287ZM291.794 921.113C292.167 922.621 292.94 923.768 294.115 924.555C295.289 925.314 296.702 925.666 298.354 925.608C300.646 925.529 302.336 924.643 303.425 922.951L307.055 924.907C305.183 927.88 302.315 929.434 298.451 929.567C295.2 929.68 292.54 928.785 290.473 926.882C288.405 924.953 287.319 922.469 287.213 919.43C287.11 916.446 288.01 913.92 289.913 911.852C291.814 909.759 294.311 908.658 297.403 908.551C300.334 908.45 302.768 909.392 304.705 911.38C306.668 913.366 307.701 915.826 307.802 918.757C307.818 919.21 307.785 919.812 307.705 920.562L291.794 921.113ZM291.632 917.596L303.385 917.189C303.036 915.574 302.314 914.371 301.219 913.582C300.151 912.792 298.911 912.421 297.498 912.47C295.899 912.526 294.582 913.011 293.547 913.928C292.511 914.844 291.873 916.067 291.632 917.596ZM313.742 914.029C313.765 914.695 314.143 915.215 314.877 915.59C315.636 915.938 316.54 916.24 317.59 916.497C318.665 916.726 319.742 917.009 320.821 917.345C321.9 917.682 322.815 918.29 323.566 919.172C324.343 920.025 324.755 921.132 324.802 922.491C324.868 924.41 324.174 925.941 322.72 927.086C321.292 928.229 319.458 928.84 317.22 928.917C315.248 928.985 313.541 928.631 312.1 927.854C310.659 927.077 309.593 925.966 308.903 924.522L312.546 922.235C313.305 924.13 314.817 925.038 317.083 924.96C319.348 924.881 320.455 924.096 320.403 922.603C320.381 921.963 319.99 921.457 319.23 921.083C318.496 920.708 317.592 920.406 316.517 920.176C315.467 919.919 314.403 919.622 313.324 919.286C312.245 918.95 311.318 918.369 310.542 917.542C309.792 916.687 309.394 915.593 309.348 914.261C309.284 912.422 309.926 910.919 311.273 909.752C312.646 908.583 314.372 907.963 316.451 907.891C318.104 907.834 319.582 908.156 320.887 908.858C322.218 909.532 323.253 910.511 323.991 911.792L320.424 913.957C319.678 912.462 318.399 911.746 316.587 911.809C315.761 911.837 315.074 912.048 314.528 912.44C313.98 912.806 313.718 913.336 313.742 914.029Z" fill="white"/>
</g>
<rect x="144.619" y="820.68" width="262.289" height="152" rx="26.5" transform="rotate(-1.97985 144.619 820.68)" stroke="#4876EF" stroke-width="7"/>
<rect x="650.34" y="172.469" width="374.903" height="151" rx="26" transform="rotate(7.1793 650.34 172.469)" fill="#01D2AB"/>
<rect x="650.34" y="172.469" width="374.903" height="151" rx="26" transform="rotate(7.1793 650.34 172.469)" stroke="#4876EF" stroke-width="8"/>
<path d="M692.645 240.292C690.467 241.792 687.831 242.347 684.735 241.957C681.64 241.567 679.223 240.376 677.485 238.383C675.75 236.364 675.069 233.873 675.442 230.91L677.78 212.336L682.344 212.911L680.041 231.206C679.828 232.9 680.148 234.311 681 235.439C681.879 236.571 683.31 237.262 685.295 237.512C687.279 237.762 688.824 237.446 689.93 236.563C691.062 235.685 691.734 234.399 691.947 232.705L694.25 214.41L698.814 214.984L696.476 233.558C696.103 236.521 694.826 238.766 692.645 240.292ZM712.496 224.245C714.771 224.532 716.518 225.491 717.737 227.123C718.956 228.754 719.406 230.84 719.086 233.38L717.553 245.564L713.266 245.024L714.745 233.277C714.932 231.795 714.678 230.608 713.984 229.714C713.29 228.82 712.256 228.287 710.88 228.114C709.372 227.924 708.095 228.247 707.049 229.083C706.006 229.892 705.363 231.263 705.12 233.194L703.781 243.83L699.495 243.291L701.993 223.447L706.279 223.987L705.96 226.527C707.512 224.653 709.691 223.892 712.496 224.245ZM740.587 220.243L744.873 220.782L741.376 248.563L737.09 248.023L737.45 245.166C735.553 247.212 733.096 248.045 730.08 247.665C727.355 247.322 725.153 246.023 723.475 243.77C721.8 241.489 721.145 238.894 721.512 235.983C721.881 233.047 723.159 230.694 725.343 228.927C727.528 227.159 729.983 226.447 732.708 226.79C735.724 227.169 737.899 228.572 739.233 230.998L740.587 220.243ZM727.009 241.312C728.05 242.652 729.47 243.436 731.269 243.662C733.068 243.889 734.638 243.482 735.979 242.441C737.322 241.374 738.109 239.927 738.339 238.102C738.569 236.276 738.163 234.693 737.123 233.353C736.085 231.986 734.667 231.189 732.868 230.962C731.069 230.736 729.497 231.156 728.153 232.223C726.813 233.264 726.028 234.697 725.798 236.523C725.568 238.349 725.972 239.945 727.009 241.312ZM749.971 241.42C750.099 242.968 750.68 244.224 751.714 245.188C752.752 246.125 754.091 246.696 755.731 246.903C758.007 247.189 759.816 246.584 761.161 245.087L764.433 247.595C762.112 250.232 759.033 251.31 755.197 250.827C751.969 250.42 749.486 249.113 747.748 246.906C746.014 244.672 745.336 242.046 745.716 239.03C746.089 236.067 747.379 233.716 749.587 231.979C751.798 230.214 754.438 229.525 757.507 229.912C760.418 230.278 762.671 231.596 764.266 233.867C765.888 236.14 766.516 238.732 766.15 241.643C766.093 242.093 765.965 242.681 765.766 243.409L749.971 241.42ZM750.371 237.923L762.039 239.392C761.951 237.741 761.429 236.439 760.474 235.486C759.546 234.536 758.38 233.972 756.978 233.796C755.391 233.596 754.013 233.866 752.844 234.606C751.676 235.346 750.852 236.451 750.371 237.923ZM774.248 235.93C775.643 233.605 777.835 232.632 780.824 233.008L780.24 237.651C778.613 237.339 777.134 237.556 775.804 238.302C774.477 239.022 773.685 240.401 773.429 242.438L772.17 252.439L767.884 251.9L770.381 232.056L774.668 232.596L774.248 235.93ZM785.615 239.537C785.532 240.199 785.822 240.773 786.487 241.26C787.181 241.724 788.026 242.166 789.021 242.587C790.046 242.985 791.064 243.435 792.076 243.939C793.088 244.443 793.894 245.189 794.495 246.179C795.126 247.145 795.357 248.303 795.187 249.652C794.947 251.557 794.018 252.959 792.4 253.857C790.808 254.759 788.901 255.069 786.679 254.79C784.721 254.543 783.092 253.922 781.793 252.925C780.494 251.928 779.619 250.662 779.167 249.127L783.128 247.449C783.576 249.44 784.924 250.578 787.173 250.861C789.422 251.144 790.64 250.545 790.826 249.063C790.906 248.428 790.601 247.865 789.91 247.375C789.245 246.888 788.401 246.446 787.376 246.048C786.381 245.627 785.377 245.165 784.365 244.662C783.354 244.158 782.531 243.436 781.896 242.496C781.292 241.533 781.073 240.39 781.24 239.067C781.469 237.242 782.342 235.86 783.858 234.922C785.4 233.987 787.203 233.65 789.267 233.909C790.907 234.116 792.316 234.67 793.492 235.57C794.699 236.448 795.564 237.578 796.089 238.961L792.223 240.531C791.725 238.936 790.576 238.025 788.777 237.799C787.957 237.696 787.246 237.794 786.643 238.095C786.044 238.369 785.702 238.85 785.615 239.537ZM809.732 241.203L804.811 240.583L803.612 250.108C803.509 250.928 803.619 251.547 803.943 251.964C804.27 252.354 804.787 252.621 805.495 252.764C806.233 252.884 807.147 252.985 808.238 253.069L807.754 256.919C804.423 256.903 802.103 256.328 800.795 255.196C799.489 254.037 799 252.161 799.326 249.568L800.525 240.044L796.874 239.584L797.393 235.457L801.044 235.916L801.584 231.63L806.03 230.9L805.331 236.456L810.252 237.075L809.732 241.203ZM828.248 239.341L832.534 239.88L830.036 259.724L825.75 259.184L826.109 256.327C824.212 258.372 821.756 259.205 818.74 258.826C816.014 258.483 813.813 257.184 812.134 254.93C810.459 252.65 809.805 250.054 810.171 247.144C810.541 244.207 811.818 241.855 814.003 240.087C816.187 238.32 818.642 237.607 821.367 237.95C824.384 238.33 826.559 239.733 827.893 242.158L828.248 239.341ZM815.669 252.472C816.71 253.813 818.13 254.596 819.929 254.823C821.728 255.049 823.298 254.642 824.638 253.601C825.982 252.534 826.769 251.088 826.999 249.262C827.228 247.437 826.823 245.854 825.782 244.513C824.745 243.146 823.327 242.35 821.527 242.123C819.728 241.897 818.157 242.317 816.813 243.384C815.473 244.425 814.687 245.858 814.458 247.684C814.228 249.509 814.632 251.105 815.669 252.472ZM847.239 241.207C849.514 241.494 851.261 242.453 852.48 244.084C853.699 245.716 854.149 247.802 853.829 250.342L852.296 262.526L848.009 261.986L849.488 250.239C849.675 248.757 849.421 247.569 848.727 246.676C848.033 245.782 846.999 245.249 845.623 245.076C844.115 244.886 842.838 245.209 841.792 246.045C840.749 246.854 840.106 248.225 839.863 250.156L838.524 260.792L834.238 260.253L836.736 240.409L841.022 240.949L840.702 243.489C842.255 241.615 844.434 240.854 847.239 241.207ZM875.33 237.204L879.616 237.744L876.119 265.525L871.833 264.985L872.193 262.128C870.296 264.173 867.839 265.006 864.823 264.627C862.098 264.284 859.896 262.985 858.218 260.731C856.543 258.451 855.888 255.855 856.255 252.945C856.624 250.008 857.901 247.656 860.086 245.888C862.271 244.121 864.725 243.408 867.451 243.751C870.467 244.131 872.642 245.534 873.976 247.959L875.33 237.204ZM861.752 258.273C862.793 259.614 864.213 260.397 866.012 260.624C867.811 260.85 869.381 260.443 870.721 259.403C872.065 258.335 872.852 256.889 873.082 255.063C873.312 253.238 872.906 251.655 871.865 250.314C870.828 248.947 869.41 248.151 867.611 247.924C865.812 247.698 864.24 248.118 862.896 249.185C861.556 250.226 860.771 251.659 860.541 253.485C860.311 255.31 860.715 256.906 861.752 258.273ZM677.464 290.428C674.475 290.052 672.101 288.732 670.343 286.468C668.612 284.207 667.931 281.609 668.301 278.672C668.674 275.709 669.978 273.36 672.212 271.625C674.476 269.867 677.102 269.177 680.092 269.553C682.024 269.796 683.725 270.481 685.196 271.607C686.667 272.732 687.701 274.126 688.298 275.787L684.337 277.465C684.007 276.456 683.413 275.629 682.553 274.983C681.724 274.314 680.714 273.905 679.523 273.755C677.777 273.535 676.233 273.946 674.893 274.986C673.579 276.03 672.81 277.439 672.587 279.211C672.364 280.984 672.76 282.539 673.774 283.876C674.815 285.217 676.208 285.997 677.954 286.217C679.118 286.363 680.198 286.217 681.194 285.778C682.217 285.342 683.024 284.691 683.617 283.825L687.043 286.393C685.997 287.874 684.622 288.978 682.918 289.704C681.214 290.43 679.396 290.671 677.464 290.428ZM704.752 273.181L709.038 273.721L706.54 293.564L702.254 293.025L702.574 290.485C701.021 292.359 698.842 293.119 696.038 292.766C693.762 292.48 692.015 291.521 690.796 289.889C689.577 288.257 689.127 286.172 689.447 283.632L690.981 271.448L695.267 271.987L693.788 283.735C693.601 285.216 693.855 286.404 694.549 287.298C695.243 288.191 696.278 288.725 697.653 288.898C699.161 289.088 700.437 288.778 701.479 287.968C702.525 287.133 703.17 285.749 703.413 283.817L704.752 273.181ZM716.3 280.199C716.217 280.86 716.508 281.434 717.172 281.921C717.866 282.385 718.711 282.827 719.706 283.248C720.731 283.646 721.749 284.096 722.761 284.6C723.773 285.104 724.579 285.85 725.18 286.84C725.811 287.806 726.042 288.964 725.872 290.313C725.632 292.218 724.703 293.62 723.085 294.518C721.493 295.42 719.586 295.731 717.364 295.451C715.406 295.204 713.777 294.583 712.478 293.586C711.179 292.589 710.304 291.324 709.852 289.788L713.813 288.11C714.261 290.102 715.609 291.239 717.858 291.522C720.107 291.805 721.325 291.206 721.511 289.724C721.591 289.089 721.286 288.527 720.595 288.036C719.931 287.55 719.086 287.107 718.061 286.71C717.066 286.289 716.062 285.826 715.05 285.323C714.039 284.819 713.216 284.097 712.582 283.157C711.977 282.194 711.758 281.051 711.925 279.729C712.154 277.903 713.027 276.521 714.543 275.583C716.085 274.648 717.888 274.311 719.952 274.571C721.592 274.777 723.001 275.331 724.177 276.231C725.384 277.109 726.25 278.239 726.774 279.622L722.908 281.192C722.41 279.597 721.261 278.686 719.462 278.46C718.642 278.357 717.931 278.455 717.328 278.756C716.73 279.03 716.387 279.511 716.3 280.199ZM740.417 281.864L735.496 281.244L734.297 290.769C734.194 291.589 734.304 292.208 734.628 292.625C734.955 293.016 735.472 293.282 736.18 293.425C736.918 293.545 737.832 293.647 738.924 293.73L738.439 297.58C735.108 297.564 732.788 296.989 731.48 295.857C730.174 294.698 729.685 292.823 730.011 290.23L731.21 280.705L727.559 280.245L728.078 276.118L731.73 276.577L732.269 272.291L736.715 271.561L736.016 277.117L740.937 277.736L740.417 281.864ZM750.02 299.562C747.11 299.195 744.762 297.879 742.978 295.611C741.194 293.344 740.487 290.742 740.857 287.805C741.226 284.868 742.556 282.523 744.847 280.768C747.137 279.014 749.737 278.32 752.648 278.687C755.585 279.056 757.932 280.373 759.689 282.637C761.474 284.904 762.181 287.506 761.811 290.443C761.441 293.38 760.111 295.725 757.821 297.48C755.557 299.237 752.957 299.931 750.02 299.562ZM746.364 293.054C747.405 294.395 748.798 295.175 750.544 295.395C752.291 295.614 753.834 295.204 755.175 294.163C756.515 293.123 757.298 291.703 757.525 289.904C757.751 288.104 757.344 286.535 756.304 285.194C755.263 283.854 753.869 283.073 752.123 282.854C750.377 282.634 748.834 283.044 747.493 284.085C746.153 285.126 745.369 286.546 745.143 288.345C744.916 290.144 745.323 291.714 746.364 293.054ZM787.876 283.121C790.125 283.404 791.846 284.36 793.038 285.988C794.231 287.617 794.672 289.661 794.363 292.122L792.814 304.425L788.528 303.885L790.041 291.86C790.215 290.484 790.004 289.383 789.409 288.555C788.818 287.701 787.927 287.199 786.736 287.05C785.414 286.883 784.3 287.186 783.397 287.96C782.519 288.736 781.971 289.997 781.751 291.744L780.352 302.856L776.066 302.316L777.58 290.291C777.753 288.916 777.556 287.816 776.987 286.991C776.449 286.144 775.584 285.646 774.394 285.496C773.097 285.333 771.982 285.649 771.049 286.446C770.119 287.215 769.546 288.46 769.329 290.18L767.93 301.292L763.644 300.753L766.142 280.909L770.428 281.449L770.128 283.83C771.642 282.059 773.655 281.331 776.168 281.647C778.708 281.967 780.455 283.249 781.409 285.492C782.995 283.568 785.151 282.778 787.876 283.121ZM801 297.231C801.128 298.779 801.709 300.035 802.743 300.998C803.781 301.935 805.12 302.507 806.76 302.713C809.036 303 810.845 302.394 812.19 300.897L815.462 303.405C813.141 306.043 810.062 307.12 806.226 306.637C802.998 306.231 800.515 304.924 798.777 302.716C797.043 300.482 796.365 297.857 796.745 294.841C797.118 291.877 798.409 289.527 800.616 287.789C802.827 286.025 805.467 285.336 808.536 285.722C811.447 286.088 813.7 287.407 815.295 289.677C816.917 291.951 817.545 294.543 817.179 297.453C817.122 297.903 816.994 298.492 816.795 299.219L801 297.231ZM801.4 293.733L813.068 295.202C812.98 293.552 812.458 292.25 811.503 291.296C810.575 290.346 809.409 289.783 808.007 289.606C806.42 289.406 805.042 289.676 803.874 290.416C802.705 291.156 801.881 292.262 801.4 293.733ZM825.277 291.74C826.672 289.416 828.864 288.442 831.853 288.818L831.269 293.462C829.642 293.149 828.163 293.366 826.833 294.113C825.506 294.833 824.714 296.211 824.458 298.249L823.199 308.25L818.913 307.71L821.411 287.867L825.697 288.406L825.277 291.74ZM847.832 287.363C847.236 287.825 846.568 288.01 845.827 287.917C845.087 287.823 844.472 287.477 843.983 286.878C843.523 286.256 843.34 285.574 843.434 284.833C843.527 284.093 843.871 283.491 844.467 283.028C845.066 282.539 845.75 282.343 846.517 282.44C847.284 282.536 847.897 282.896 848.357 283.518C848.819 284.114 849.004 284.782 848.91 285.523C848.817 286.264 848.458 286.877 847.832 287.363ZM840.812 310.467L843.31 290.623L847.596 291.163L845.098 311.006L840.812 310.467ZM862.281 292.487C864.557 292.774 866.304 293.733 867.523 295.365C868.742 296.996 869.192 299.082 868.872 301.622L867.338 313.806L863.052 313.266L864.531 301.519C864.717 300.037 864.464 298.85 863.77 297.956C863.076 297.063 862.041 296.529 860.665 296.356C859.157 296.166 857.88 296.489 856.834 297.325C855.792 298.134 855.149 299.505 854.906 301.436L853.567 312.072L849.281 311.533L851.779 291.689L856.065 292.229L855.745 294.769C857.298 292.895 859.477 292.134 862.281 292.487ZM876.818 300.405C876.735 301.066 877.025 301.641 877.689 302.127C878.384 302.591 879.228 303.033 880.224 303.454C881.249 303.852 882.267 304.303 883.279 304.806C884.29 305.31 885.097 306.057 885.698 307.046C886.329 308.012 886.559 309.17 886.389 310.52C886.15 312.425 885.221 313.826 883.602 314.724C882.011 315.626 880.104 315.937 877.881 315.657C875.923 315.411 874.295 314.789 872.996 313.792C871.697 312.796 870.821 311.53 870.37 309.995L874.33 308.316C874.778 310.308 876.127 311.445 878.376 311.728C880.625 312.011 881.842 311.412 882.029 309.93C882.109 309.295 881.803 308.733 881.112 308.243C880.448 307.756 879.603 307.314 878.578 306.916C877.583 306.495 876.58 306.033 875.568 305.529C874.556 305.025 873.733 304.304 873.099 303.364C872.495 302.401 872.276 301.258 872.442 299.935C872.672 298.109 873.545 296.727 875.06 295.789C876.603 294.855 878.406 294.517 880.469 294.777C882.11 294.983 883.518 295.537 884.695 296.438C885.901 297.315 886.767 298.446 887.292 299.829L883.425 301.398C882.927 299.803 881.779 298.893 879.98 298.666C879.159 298.563 878.448 298.662 877.846 298.962C877.247 299.236 876.904 299.717 876.818 300.405ZM895.447 293.357C894.851 293.819 894.183 294.004 893.442 293.91C892.701 293.817 892.086 293.471 891.597 292.872C891.138 292.25 890.955 291.568 891.049 290.827C891.142 290.087 891.486 289.485 892.082 289.022C892.681 288.533 893.364 288.337 894.132 288.434C894.899 288.53 895.512 288.89 895.971 289.512C896.434 290.108 896.619 290.776 896.525 291.517C896.432 292.258 896.073 292.871 895.447 293.357ZM888.427 316.461L890.924 296.617L895.211 297.157L892.713 317L888.427 316.461ZM915.189 299.672L919.396 300.201L917.013 319.132C916.633 322.148 915.349 324.338 913.162 325.702C910.974 327.066 908.465 327.57 905.634 327.214C901.057 326.638 898.123 324.642 896.833 321.228L900.794 319.549C901.569 321.717 903.372 322.978 906.203 323.335C908.055 323.568 909.559 323.26 910.714 322.411C911.892 321.592 912.589 320.322 912.806 318.602L913.111 316.181C911.207 318.28 908.76 319.141 905.77 318.765C902.966 318.412 900.723 317.122 899.041 314.894C897.363 312.64 896.702 310.098 897.058 307.267C897.415 304.436 898.683 302.15 900.865 300.408C903.049 298.641 905.544 297.933 908.348 298.286C911.338 298.663 913.495 300.103 914.819 302.608L915.189 299.672ZM902.571 312.476C903.638 313.82 905.071 314.605 906.87 314.831C908.669 315.058 910.239 314.651 911.58 313.61C912.947 312.573 913.742 311.168 913.965 309.395C914.188 307.622 913.766 306.064 912.699 304.72C911.658 303.38 910.238 302.596 908.439 302.37C906.64 302.143 905.057 302.549 903.69 303.586C902.349 304.627 901.568 306.034 901.345 307.806C901.121 309.579 901.53 311.135 902.571 312.476ZM934.1 301.528C936.376 301.815 938.123 302.774 939.342 304.405C940.561 306.037 941.011 308.123 940.691 310.663L939.157 322.847L934.871 322.307L936.35 310.56C936.537 309.078 936.283 307.891 935.589 306.997C934.895 306.103 933.86 305.57 932.485 305.397C930.976 305.207 929.699 305.53 928.654 306.366C927.611 307.175 926.968 308.546 926.725 310.477L925.386 321.113L921.1 320.574L924.597 292.793L928.883 293.332L927.564 303.81C929.117 301.936 931.296 301.175 934.1 301.528ZM956.03 309.006L951.109 308.386L949.91 317.911C949.806 318.731 949.917 319.35 950.24 319.767C950.568 320.157 951.085 320.424 951.793 320.567C952.53 320.687 953.445 320.788 954.536 320.872L954.051 324.722C950.721 324.705 948.401 324.131 947.092 322.999C945.787 321.84 945.297 319.964 945.623 317.371L946.822 307.847L943.171 307.387L943.691 303.26L947.342 303.719L947.882 299.433L952.328 298.703L951.628 304.259L956.549 304.878L956.03 309.006ZM962.067 311.136C961.984 311.798 962.274 312.372 962.939 312.859C963.633 313.322 964.477 313.765 965.473 314.186C966.498 314.583 967.516 315.034 968.528 315.538C969.539 316.041 970.346 316.788 970.947 317.777C971.578 318.744 971.808 319.902 971.639 321.251C971.399 323.156 970.47 324.558 968.852 325.456C967.26 326.357 965.353 326.668 963.13 326.389C961.172 326.142 959.544 325.52 958.245 324.524C956.946 323.527 956.07 322.261 955.619 320.726L959.579 319.048C960.027 321.039 961.376 322.176 963.625 322.46C965.874 322.743 967.091 322.143 967.278 320.662C967.358 320.027 967.052 319.464 966.362 318.974C965.697 318.487 964.852 318.045 963.827 317.647C962.832 317.226 961.829 316.764 960.817 316.26C959.805 315.757 958.982 315.035 958.348 314.095C957.744 313.132 957.525 311.989 957.691 310.666C957.921 308.841 958.794 307.459 960.31 306.521C961.852 305.586 963.655 305.249 965.718 305.508C967.359 305.715 968.767 306.268 969.944 307.169C971.151 308.047 972.016 309.177 972.541 310.56L968.675 312.129C968.177 310.535 967.028 309.624 965.229 309.398C964.409 309.294 963.697 309.393 963.095 309.693C962.496 309.967 962.153 310.448 962.067 311.136Z" fill="white"/>
<g clip-path="url(#clip2_662_4258)">
<rect x="715.365" y="775" width="258.343" height="147.895" rx="30" transform="rotate(4.40715 715.365 775)" fill="#4876EF"/>
<path d="M775.862 816.907L773.713 844.824L769.126 844.471L770.658 824.57L761.083 837.955L760.524 837.912L753.113 823.179L751.578 843.12L746.992 842.767L749.141 814.85L754.086 815.23L761.427 829.837L770.957 816.529L775.862 816.907ZM795.531 826.445L799.838 826.777L798.303 846.718L793.995 846.386L794.216 843.514C792.421 845.65 790.007 846.6 786.976 846.367C784.238 846.156 781.976 844.966 780.19 842.796C778.407 840.599 777.628 838.038 777.853 835.114C778.08 832.162 779.242 829.751 781.339 827.88C783.435 826.009 785.853 825.178 788.591 825.389C791.622 825.623 793.863 826.918 795.313 829.277L795.531 826.445ZM783.602 840.17C784.706 841.458 786.162 842.172 787.97 842.311C789.778 842.451 791.327 841.968 792.615 840.864C793.906 839.733 794.622 838.25 794.763 836.416C794.904 834.581 794.423 833.019 793.318 831.731C792.216 830.416 790.761 829.688 788.953 829.549C787.145 829.41 785.596 829.906 784.305 831.037C783.017 832.141 782.302 833.611 782.16 835.445C782.019 837.28 782.5 838.855 783.602 840.17ZM814.59 827.391C816.876 827.567 818.668 828.44 819.964 830.011C821.261 831.582 821.811 833.644 821.614 836.196L820.672 848.44L816.365 848.108L817.273 836.303C817.388 834.814 817.077 833.64 816.341 832.781C815.605 831.922 814.545 831.439 813.163 831.333C811.647 831.216 810.387 831.601 809.383 832.486C808.381 833.345 807.805 834.745 807.656 836.686L806.833 847.374L802.525 847.043L804.061 827.102L808.368 827.433L808.171 829.986C809.632 828.039 811.771 827.174 814.59 827.391ZM841.841 830.01L846.148 830.342L844.612 850.283L840.305 849.951L840.526 847.08C838.73 849.215 836.317 850.166 833.286 849.933C830.547 849.722 828.285 848.531 826.5 846.361C824.717 844.164 823.938 841.604 824.163 838.679C824.39 835.728 825.552 833.317 827.648 831.445C829.745 829.574 832.163 828.744 834.901 828.955C837.932 829.188 840.173 830.484 841.623 832.842L841.841 830.01ZM829.912 843.735C831.016 845.024 832.472 845.738 834.28 845.877C836.088 846.016 837.636 845.534 838.925 844.429C840.216 843.298 840.932 841.816 841.073 839.981C841.214 838.146 840.733 836.585 839.628 835.296C838.526 833.981 837.071 833.254 835.263 833.115C833.455 832.976 831.906 833.471 830.615 834.602C829.326 835.707 828.611 837.176 828.47 839.011C828.329 840.845 828.809 842.42 829.912 843.735ZM866.244 831.889L870.471 832.215L869.006 851.239C868.773 854.27 867.597 856.519 865.478 857.988C863.359 859.456 860.877 860.081 858.032 859.862C853.432 859.507 850.406 857.656 848.952 854.308L852.826 852.44C853.706 854.567 855.568 855.74 858.413 855.959C860.274 856.103 861.761 855.722 862.874 854.818C864.011 853.943 864.646 852.641 864.779 850.913L864.966 848.48C863.166 850.669 860.764 851.647 857.76 851.416C854.941 851.199 852.638 850.018 850.851 847.875C849.066 845.705 848.283 843.197 848.502 840.352C848.721 837.507 849.877 835.163 851.972 833.318C854.068 831.447 856.526 830.62 859.344 830.837C862.349 831.068 864.573 832.403 866.016 834.841L866.244 831.889ZM854.26 845.289C855.391 846.58 856.86 847.294 858.668 847.434C860.476 847.573 862.024 847.09 863.313 845.986C864.628 844.884 865.354 843.442 865.491 841.66C865.628 839.879 865.132 838.343 864.001 837.052C862.896 835.764 861.44 835.05 859.632 834.911C857.824 834.772 856.263 835.253 854.947 836.355C853.659 837.46 852.946 838.903 852.809 840.684C852.672 842.465 853.155 844 854.26 845.289ZM877.175 844.606C877.377 846.146 878.018 847.372 879.098 848.284C880.18 849.17 881.545 849.676 883.194 849.803C885.48 849.979 887.259 849.287 888.529 847.727L891.919 850.074C889.728 852.821 886.705 854.045 882.85 853.749C879.606 853.499 877.063 852.313 875.22 850.192C873.38 848.045 872.576 845.455 872.81 842.424C873.039 839.447 874.214 837.036 876.335 835.194C878.458 833.325 881.062 832.509 884.146 832.746C887.071 832.971 889.385 834.179 891.088 836.37C892.818 838.562 893.571 841.121 893.346 844.046C893.311 844.498 893.212 845.092 893.048 845.828L877.175 844.606ZM877.405 841.093L889.131 841.996C888.963 840.352 888.379 839.076 887.379 838.17C886.406 837.266 885.214 836.76 883.805 836.651C882.21 836.529 880.847 836.865 879.716 837.661C878.585 838.456 877.814 839.6 877.405 841.093ZM752.323 892.844C749.399 892.619 746.99 891.417 745.099 889.239C743.207 887.061 742.375 884.496 742.602 881.545C742.829 878.593 744.044 876.186 746.247 874.323C748.45 872.46 751.014 871.641 753.938 871.866C756.89 872.093 759.298 873.295 761.163 875.471C763.055 877.65 763.887 880.215 763.66 883.166C763.432 886.117 762.217 888.524 760.015 890.387C757.838 892.252 755.275 893.071 752.323 892.844ZM748.357 886.521C749.461 887.81 750.891 888.521 752.646 888.657C754.4 888.792 755.922 888.307 757.211 887.203C758.499 886.098 759.213 884.642 759.352 882.834C759.492 881.026 759.009 879.478 757.905 878.189C756.8 876.901 755.371 876.189 753.616 876.054C751.861 875.919 750.339 876.403 749.051 877.508C747.762 878.612 747.048 880.068 746.909 881.876C746.77 883.684 747.253 885.232 748.357 886.521ZM771.574 877.115C772.854 874.727 774.997 873.648 778.001 873.879L777.642 878.546C776.002 878.312 774.535 878.601 773.242 879.41C771.952 880.194 771.228 881.609 771.07 883.656L770.296 893.706L765.989 893.375L767.524 873.434L771.832 873.765L771.574 877.115ZM795.831 867.589L800.138 867.921L797.989 895.838L793.682 895.507L793.903 892.635C792.107 894.77 789.693 895.721 786.662 895.488C783.924 895.277 781.662 894.087 779.876 891.917C778.093 889.72 777.314 887.159 777.539 884.234C777.766 881.283 778.928 878.872 781.025 877.001C783.121 875.129 785.539 874.299 788.277 874.51C791.308 874.743 793.549 876.039 794.999 878.397L795.831 867.589ZM783.288 889.291C784.392 890.579 785.849 891.293 787.657 891.432C789.465 891.572 791.013 891.089 792.301 889.985C793.592 888.854 794.308 887.371 794.449 885.536C794.59 883.702 794.109 882.14 793.005 880.852C791.902 879.536 790.447 878.809 788.639 878.67C786.831 878.531 785.282 879.027 783.991 880.158C782.703 881.262 781.988 882.731 781.846 884.566C781.705 886.401 782.186 887.975 783.288 889.291ZM806.228 888.289C806.43 889.829 807.071 891.055 808.151 891.967C809.233 892.853 810.598 893.359 812.247 893.486C814.533 893.662 816.312 892.97 817.582 891.409L820.972 893.757C818.781 896.503 815.758 897.728 811.903 897.431C808.659 897.182 806.116 895.996 804.273 893.875C802.433 891.727 801.629 889.138 801.863 886.107C802.092 883.129 803.267 880.719 805.388 878.876C807.511 877.007 810.115 876.191 813.199 876.429C816.124 876.654 818.438 877.862 820.141 880.052C821.871 882.245 822.624 884.804 822.399 887.728C822.364 888.18 822.265 888.774 822.101 889.511L806.228 888.289ZM806.458 884.776L818.184 885.679C818.016 884.034 817.432 882.759 816.432 881.853C815.459 880.949 814.267 880.443 812.858 880.334C811.263 880.211 809.9 880.548 808.769 881.343C807.638 882.139 806.867 883.283 806.458 884.776ZM830.211 881.63C831.492 879.241 833.634 878.163 836.639 878.394L836.279 883.06C834.639 882.827 833.173 883.115 831.88 883.925C830.589 884.708 829.865 886.123 829.708 888.171L828.934 898.221L824.627 897.889L826.162 877.948L830.469 878.28L830.211 881.63ZM841.739 884.684C841.688 885.349 842.006 885.908 842.693 886.362C843.409 886.792 844.274 887.193 845.289 887.565C846.332 887.913 847.371 888.314 848.406 888.768C849.441 889.222 850.282 889.929 850.93 890.888C851.607 891.823 851.894 892.968 851.789 894.324C851.642 896.238 850.782 897.683 849.209 898.659C847.662 899.636 845.773 900.039 843.539 899.867C841.572 899.716 839.915 899.173 838.569 898.241C837.224 897.308 836.288 896.086 835.763 894.574L839.637 892.706C840.181 894.674 841.583 895.745 843.843 895.919C846.103 896.093 847.291 895.435 847.405 893.946C847.454 893.308 847.122 892.761 846.408 892.305C845.721 891.851 844.856 891.45 843.813 891.102C842.798 890.73 841.774 890.317 840.739 889.863C839.704 889.408 838.847 888.727 838.168 887.819C837.518 886.886 837.244 885.755 837.346 884.426C837.488 882.591 838.292 881.169 839.761 880.159C841.256 879.151 843.041 878.726 845.115 878.886C846.763 879.013 848.197 879.498 849.416 880.34C850.663 881.159 851.582 882.246 852.173 883.602L848.387 885.356C847.813 883.788 846.622 882.934 844.814 882.794C843.989 882.731 843.284 882.864 842.697 883.193C842.112 883.496 841.793 883.993 841.739 884.684Z" fill="white"/>
</g>
<rect x="719.046" y="779.296" width="250.343" height="139.895" rx="26" transform="rotate(4.40715 719.046 779.296)" stroke="#01D2AB" stroke-width="8"/>
</g>
<defs>
<radialGradient id="paint0_radial_662_4258" cx="0" cy="0" r="1" gradientUnits="userSpaceOnUse" gradientTransform="translate(540 783.5) rotate(90) scale(534.5)">
<stop stop-color="white" stop-opacity="0.63"/>
<stop offset="1" stop-color="white"/>
</radialGradient>
<clipPath id="clip0_662_4258">
<rect width="1080" height="1080" fill="white"/>
</clipPath>
<clipPath id="clip1_662_4258">
<rect x="141" y="817.303" width="269.289" height="159" rx="30" transform="rotate(-1.97985 141 817.303)" fill="white"/>
</clipPath>
<clipPath id="clip2_662_4258">
<rect x="715.365" y="775" width="258.343" height="147.895" rx="30" transform="rotate(4.40715 715.365 775)" fill="white"/>
</clipPath>
</defs>
</svg>
